<svg width="13" height="12" viewBox="0 0 13 12" fill="none" xmlns="http://www.w3.org/2000/svg">
<path fill-rule="evenodd" clip-rule="evenodd" d="M12.3671 3.4541H10.6864L9.78421 0.307247C9.75373 0.24241 9.71037 0.184353 9.65673 0.136557C9.60309 0.0887611 9.54028 0.052212 9.47206 0.0291025C9.40384 0.005993 9.33162 -0.0032008 9.25973 0.00207257C9.18784 0.00734593 9.11777 0.0269778 9.05371 0.0597906L8.99182 0.090939C8.86083 0.159046 8.76146 0.274802 8.7145 0.413979C8.66754 0.553155 8.67664 0.704965 8.73989 0.837635L9.38584 3.45323H3.5854L4.25488 0.841096C4.31897 0.709036 4.32928 0.557527 4.28365 0.418115C4.23802 0.278703 4.13997 0.16213 4.00992 0.0926694L3.9489 0.061521C3.88511 0.028138 3.81521 0.00784943 3.74335 0.00186576C3.67148 -0.0041179 3.59915 0.00432596 3.53065 0.0266935C3.46215 0.049061 3.39889 0.084894 3.34464 0.132055C3.29039 0.179216 3.24627 0.236738 3.21491 0.301191L2.27955 3.45323H0.631999C0.28331 3.45323 0 3.71453 0 4.03467C0 4.03467 0.282438 5.09025 0.631999 5.09025H1.18641L1.57782 10.8674C1.57782 10.8674 1.62315 12 3.41977 12H9.54013C11.41 12 11.3838 10.844 11.3838 10.844L11.7003 5.09112H12.368C12.7167 5.09112 13 4.03553 13 4.03553C12.9991 3.7154 12.7158 3.4541 12.3671 3.4541ZM2.5925 5.13871H1.66673V4.21983H2.5925V5.13871ZM4.36297 10.08C4.36297 10.3829 4.14417 10.6277 3.87568 10.6277H3.85563C3.58452 10.6277 3.36659 10.3829 3.36659 10.08V6.33446C3.36659 6.03163 3.58452 5.78763 3.85563 5.78763H3.87568C4.14417 5.78763 4.36297 6.03163 4.36297 6.33446V10.08ZM6.9764 9.91133C6.9764 10.2003 6.7698 10.4348 6.51525 10.4348H6.49695C6.24153 10.4348 6.03581 10.2003 6.03581 9.91133V6.36474C6.03581 6.07575 6.24153 5.84214 6.49695 5.84214H6.51525C6.7698 5.84214 6.9764 6.07662 6.9764 6.36474V9.91133ZM9.56367 9.99093C9.56367 10.2834 9.3501 10.5196 9.08771 10.5196H9.06853C8.80527 10.5196 8.59344 10.2834 8.59344 9.99093V6.39502C8.59344 6.10257 8.80527 5.86637 9.06853 5.86637H9.08771C9.3501 5.86637 9.56367 6.10257 9.56367 6.39502V9.99093ZM11.3097 5.16553H10.3561V4.21896H11.3097V5.16553Z" fill="#424242"/>
</svg>
