<svg width="34" height="34" viewBox="0 0 34 34" fill="none" xmlns="http://www.w3.org/2000/svg">
<path d="M28.6195 26.2862C27.1107 23.8552 23.7894 21.25 17 21.25C10.2106 21.25 6.89137 23.8531 5.38049 26.2862C6.77254 28.0314 8.54019 29.4402 10.5519 30.4078C12.5636 31.3754 14.7677 31.8769 17 31.875C19.2323 31.8769 21.4363 31.3754 23.4481 30.4078C25.4598 29.4402 27.2274 28.0314 28.6195 26.2862V26.2862Z" fill="#424242"/>
<path fill-rule="evenodd" clip-rule="evenodd" d="M17 19.125C18.6908 19.125 20.3123 18.4534 21.5078 17.2578C22.7034 16.0623 23.375 14.4408 23.375 12.75C23.375 11.0592 22.7034 9.43774 21.5078 8.24219C20.3123 7.04665 18.6908 6.375 17 6.375C15.3092 6.375 13.6877 7.04665 12.4922 8.24219C11.2967 9.43774 10.625 11.0592 10.625 12.75C10.625 14.4408 11.2967 16.0623 12.4922 17.2578C13.6877 18.4534 15.3092 19.125 17 19.125V19.125Z" fill="#424242"/>
<path fill-rule="evenodd" clip-rule="evenodd" d="M17 2.125C13.0549 2.125 9.27139 3.69218 6.48179 6.48179C3.69218 9.27139 2.125 13.0549 2.125 17C2.125 20.9451 3.69218 24.7286 6.48179 27.5182C9.27139 30.3078 13.0549 31.875 17 31.875C20.9451 31.875 24.7286 30.3078 27.5182 27.5182C30.3078 24.7286 31.875 20.9451 31.875 17C31.875 13.0549 30.3078 9.27139 27.5182 6.48179C24.7286 3.69218 20.9451 2.125 17 2.125V2.125ZM0 17C0 12.4913 1.79107 8.1673 4.97918 4.97918C8.1673 1.79107 12.4913 0 17 0C21.5087 0 25.8327 1.79107 29.0208 4.97918C32.2089 8.1673 34 12.4913 34 17C34 21.5087 32.2089 25.8327 29.0208 29.0208C25.8327 32.2089 21.5087 34 17 34C12.4913 34 8.1673 32.2089 4.97918 29.0208C1.79107 25.8327 0 21.5087 0 17V17Z" fill="#424242"/>
</svg>
