<svg width="13" height="12" viewBox="0 0 13 12" fill="none" xmlns="http://www.w3.org/2000/svg">
<path d="M11.7 0H11.05V8.21053H11.7C12.0448 8.21053 12.3754 8.07744 12.6192 7.84056C12.863 7.60367 13 7.28238 13 6.94737V1.26316C13 0.928148 12.863 0.606858 12.6192 0.36997C12.3754 0.133082 12.0448 0 11.7 0ZM1.3 8.21053H5.85L5.1207 10.3377C5.05563 10.5275 5.0379 10.7297 5.06898 10.9275C5.10006 11.1253 5.17906 11.3131 5.29946 11.4754C5.41987 11.6377 5.57825 11.77 5.76155 11.8612C5.94484 11.9524 6.14782 11.9999 6.35375 12H6.5L9.75 8.56547V0H2.6L0.04095 5.46253L0 5.64758V6.94737C0 7.28238 0.136964 7.60367 0.380761 7.84056C0.624558 8.07744 0.955218 8.21053 1.3 8.21053Z" fill="#424242"/>
</svg>
