<svg width="13" height="17" viewBox="0 0 13 17" fill="none" xmlns="http://www.w3.org/2000/svg">
<path d="M12 7.24699V14.2692C12 14.7283 11.8262 15.1685 11.5167 15.4931C11.2073 15.8177 10.7876 16 10.35 16H2.65C2.21239 16 1.79271 15.8177 1.48327 15.4931C1.17384 15.1685 1 14.7283 1 14.2692V2.73077C1 2.27174 1.17384 1.83151 1.48327 1.50693C1.79271 1.18235 2.21239 1 2.65 1H6.04453C6.33617 1.00005 6.61585 1.12157 6.82209 1.33786L11.6779 6.43137C11.8841 6.64771 12 6.94108 12 7.24699Z" stroke="#424242" stroke-width="1.5" stroke-linejoin="round"/>
<path d="M6.5 1.28845V5.61538C6.5 5.92139 6.61589 6.21488 6.82218 6.43127C7.02847 6.64766 7.30826 6.76922 7.6 6.76922H11.725" stroke="#424242" stroke-width="1.5" stroke-linecap="round" stroke-linejoin="round"/>
<path d="M3.75 9.65384H9.25" stroke="#424242" stroke-width="1.5" stroke-linecap="round" stroke-linejoin="round"/>
<path d="M3.75 12.5385H9.25" stroke="#424242" stroke-width="1.5" stroke-linecap="round" stroke-linejoin="round"/>
</svg>
