<svg width="13" height="12" viewBox="0 0 13 12" fill="none" xmlns="http://www.w3.org/2000/svg">
<path d="M1 1.55556C1 1.40821 1.06438 1.26691 1.17899 1.16272C1.2936 1.05853 1.44903 1 1.61111 1H11.3889C11.551 1 11.7064 1.05853 11.821 1.16272C11.9356 1.26691 12 1.40821 12 1.55556V2.99222C12 3.13955 11.9356 3.28084 11.8209 3.385L7.90128 6.94833C7.78666 7.0525 7.72226 7.19378 7.72222 7.34111V8.77778L5.27778 11V7.34111C5.27774 7.19378 5.21334 7.0525 5.09872 6.94833L1.17906 3.385C1.06444 3.28084 1.00003 3.13955 1 2.99222V1.55556Z" stroke="white" stroke-width="1.5" stroke-linecap="round" stroke-linejoin="round"/>
</svg>
