<svg width="102" height="101" viewBox="0 0 102 101" fill="none" xmlns="http://www.w3.org/2000/svg">
<path d="M81 15H101L51 100.922L1 15H39.25L51 34.924L62.5 15H81Z" fill="#41B883"/>
<path d="M1 15L51 100.922L101 15H81L51 66.5533L20.75 15H1Z" fill="#41B883"/>
<path d="M20.75 15L51 66.8023L81 15H62.5L51 34.924L39.25 15H20.75Z" fill="#35495E"/>
<path d="M69.2409 31.2607C68.624 30.7475 67.8795 30.4112 67.0867 30.2876C66.2939 30.164 65.4823 30.2577 64.7385 30.5587L25.9097 46.2345C25.0796 46.5762 24.3729 47.1622 23.8835 47.9148C23.3942 48.6674 23.1452 49.551 23.1696 50.4484C23.1941 51.3457 23.4908 52.2145 24.0204 52.9393C24.55 53.6642 25.2875 54.2108 26.135 54.5068L33.9892 57.239L38.3659 71.7167C38.4259 71.9098 38.5126 72.0936 38.6237 72.2627C38.641 72.2887 38.6649 72.306 38.6822 72.3342C38.8099 72.5119 38.9641 72.669 39.1394 72.8C39.1883 72.8383 39.2389 72.8745 39.291 72.9083C39.4963 73.0445 39.7235 73.1442 39.9627 73.203L39.9909 73.2052L40.0039 73.2117C40.1487 73.2407 40.296 73.2552 40.4437 73.255L40.4827 73.2485C40.7046 73.2448 40.9246 73.2068 41.1349 73.1358C41.1847 73.1185 41.2259 73.0925 41.2735 73.0708C41.4308 73.0063 41.5799 72.9234 41.7177 72.8238C41.8274 72.7306 41.9372 72.6374 42.047 72.5443L47.9014 66.0812L56.633 72.8455C57.4016 73.4441 58.3477 73.7696 59.3219 73.7707C60.3429 73.7695 61.3324 73.4172 62.1246 72.773C62.9167 72.1288 63.4633 71.2318 63.6725 70.2325L70.7424 35.529C70.9023 34.7482 70.847 33.9387 70.5826 33.1869C70.3181 32.4351 69.8544 31.7693 69.2409 31.2607ZM41.3017 57.928C41.0016 58.2275 40.7966 58.6088 40.7124 59.0243L40.0407 62.283L38.342 56.6648L47.1495 52.078L41.3017 57.928ZM59.2894 69.42L48.9695 61.425C48.5377 61.0918 47.9962 60.9335 47.4529 60.9817C46.9096 61.0299 46.4045 61.281 46.038 61.685L44.1617 63.7542L44.8247 60.5323L60.1712 45.1858C60.5353 44.8195 60.7566 44.3351 60.7951 43.82C60.8336 43.3049 60.6868 42.793 60.3813 42.3766C60.0757 41.9602 59.6314 41.6666 59.1284 41.5488C58.6255 41.4311 58.0971 41.4969 57.6384 41.7343L35.6142 53.2003L27.5434 50.2472L66.4979 34.6667L59.2894 69.42Z" fill="white"/>
<path d="M9.808 3.6L6.148 12H4.612L0.94 3.6H2.632L5.428 10.08L8.248 3.6H9.808ZM14.4822 12.12C13.3222 12.12 12.4182 11.796 11.7702 11.148C11.1222 10.492 10.7982 9.556 10.7982 8.34V3.6H12.3582V8.28C12.3582 9.928 13.0702 10.752 14.4942 10.752C15.9102 10.752 16.6182 9.928 16.6182 8.28V3.6H18.1542V8.34C18.1542 9.556 17.8302 10.492 17.1822 11.148C16.5422 11.796 15.6422 12.12 14.4822 12.12ZM26.6389 10.692V12H20.3389V3.6H26.4709V4.908H21.8989V7.092H25.9549V8.376H21.8989V10.692H26.6389ZM27.6756 8.04H30.9756V9.288H27.6756V8.04ZM40.4768 12L40.4648 6.432L37.7048 11.04H37.0088L34.2488 6.504V12H32.7608V3.6H34.0448L37.3808 9.168L40.6568 3.6H41.9408L41.9528 12H40.4768ZM50.5218 10.692V12H44.2218V3.6H50.3538V4.908H45.7818V7.092H49.8378V8.376H45.7818V10.692H50.5218ZM54.8648 12.12C54.2168 12.12 53.5888 12.028 52.9808 11.844C52.3808 11.66 51.9048 11.416 51.5528 11.112L52.0928 9.9C52.4368 10.172 52.8568 10.396 53.3528 10.572C53.8568 10.74 54.3608 10.824 54.8648 10.824C55.4888 10.824 55.9528 10.724 56.2568 10.524C56.5688 10.324 56.7248 10.06 56.7248 9.732C56.7248 9.492 56.6368 9.296 56.4608 9.144C56.2928 8.984 56.0768 8.86 55.8128 8.772C55.5488 8.684 55.1888 8.584 54.7328 8.472C54.0928 8.32 53.5728 8.168 53.1728 8.016C52.7808 7.864 52.4408 7.628 52.1528 7.308C51.8728 6.98 51.7328 6.54 51.7328 5.988C51.7328 5.524 51.8568 5.104 52.1048 4.728C52.3608 4.344 52.7408 4.04 53.2448 3.816C53.7568 3.592 54.3808 3.48 55.1168 3.48C55.6288 3.48 56.1328 3.544 56.6288 3.672C57.1248 3.8 57.5528 3.984 57.9128 4.224L57.4208 5.436C57.0528 5.22 56.6688 5.056 56.2688 4.944C55.8688 4.832 55.4808 4.776 55.1048 4.776C54.4888 4.776 54.0288 4.88 53.7248 5.088C53.4288 5.296 53.2808 5.572 53.2808 5.916C53.2808 6.156 53.3648 6.352 53.5328 6.504C53.7088 6.656 53.9288 6.776 54.1928 6.864C54.4568 6.952 54.8168 7.052 55.2728 7.164C55.8968 7.308 56.4088 7.46 56.8088 7.62C57.2088 7.772 57.5488 8.008 57.8288 8.328C58.1168 8.648 58.2608 9.08 58.2608 9.624C58.2608 10.088 58.1328 10.508 57.8768 10.884C57.6288 11.26 57.2488 11.56 56.7368 11.784C56.2248 12.008 55.6008 12.12 54.8648 12.12ZM62.4117 12.12C61.7637 12.12 61.1357 12.028 60.5277 11.844C59.9277 11.66 59.4517 11.416 59.0997 11.112L59.6397 9.9C59.9837 10.172 60.4037 10.396 60.8997 10.572C61.4037 10.74 61.9077 10.824 62.4117 10.824C63.0357 10.824 63.4997 10.724 63.8037 10.524C64.1157 10.324 64.2717 10.06 64.2717 9.732C64.2717 9.492 64.1837 9.296 64.0077 9.144C63.8397 8.984 63.6237 8.86 63.3597 8.772C63.0957 8.684 62.7357 8.584 62.2797 8.472C61.6397 8.32 61.1197 8.168 60.7197 8.016C60.3277 7.864 59.9877 7.628 59.6997 7.308C59.4197 6.98 59.2797 6.54 59.2797 5.988C59.2797 5.524 59.4037 5.104 59.6517 4.728C59.9077 4.344 60.2877 4.04 60.7917 3.816C61.3037 3.592 61.9277 3.48 62.6637 3.48C63.1757 3.48 63.6797 3.544 64.1757 3.672C64.6717 3.8 65.0997 3.984 65.4597 4.224L64.9677 5.436C64.5997 5.22 64.2157 5.056 63.8157 4.944C63.4157 4.832 63.0277 4.776 62.6517 4.776C62.0357 4.776 61.5757 4.88 61.2717 5.088C60.9757 5.296 60.8277 5.572 60.8277 5.916C60.8277 6.156 60.9117 6.352 61.0797 6.504C61.2557 6.656 61.4757 6.776 61.7397 6.864C62.0037 6.952 62.3637 7.052 62.8197 7.164C63.4437 7.308 63.9557 7.46 64.3557 7.62C64.7557 7.772 65.0957 8.008 65.3757 8.328C65.6637 8.648 65.8077 9.08 65.8077 9.624C65.8077 10.088 65.6797 10.508 65.4237 10.884C65.1757 11.26 64.7957 11.56 64.2837 11.784C63.7717 12.008 63.1477 12.12 62.4117 12.12ZM72.8026 10.056H68.6026L67.7746 12H66.1666L69.9466 3.6H71.4826L75.2746 12H73.6426L72.8026 10.056ZM72.2866 8.832L70.7026 5.16L69.1306 8.832H72.2866ZM81.9617 7.704H83.4377V11.052C83.0057 11.396 82.5017 11.66 81.9257 11.844C81.3497 12.028 80.7577 12.12 80.1497 12.12C79.2937 12.12 78.5217 11.936 77.8337 11.568C77.1457 11.192 76.6057 10.676 76.2137 10.02C75.8217 9.364 75.6257 8.624 75.6257 7.8C75.6257 6.976 75.8217 6.236 76.2137 5.58C76.6057 4.924 77.1457 4.412 77.8337 4.044C78.5297 3.668 79.3097 3.48 80.1737 3.48C80.8777 3.48 81.5177 3.596 82.0937 3.828C82.6697 4.06 83.1537 4.4 83.5457 4.848L82.5617 5.808C81.9217 5.168 81.1497 4.848 80.2457 4.848C79.6537 4.848 79.1257 4.972 78.6617 5.22C78.2057 5.468 77.8457 5.816 77.5817 6.264C77.3257 6.712 77.1977 7.224 77.1977 7.8C77.1977 8.36 77.3257 8.864 77.5817 9.312C77.8457 9.76 78.2057 10.112 78.6617 10.368C79.1257 10.624 79.6497 10.752 80.2337 10.752C80.8897 10.752 81.4657 10.608 81.9617 10.32V7.704ZM91.7952 10.692V12H85.4952V3.6H91.6272V4.908H87.0552V7.092H91.1112V8.376H87.0552V10.692H91.7952ZM99.0303 12L97.3143 9.54C97.2423 9.548 97.1343 9.552 96.9903 9.552H95.0943V12H93.5343V3.6H96.9903C97.7183 3.6 98.3503 3.72 98.8863 3.96C99.4303 4.2 99.8463 4.544 100.134 4.992C100.422 5.44 100.566 5.972 100.566 6.588C100.566 7.22 100.41 7.764 100.098 8.22C99.7943 8.676 99.3543 9.016 98.7783 9.24L100.71 12H99.0303ZM98.9943 6.588C98.9943 6.052 98.8183 5.64 98.4662 5.352C98.1143 5.064 97.5983 4.92 96.9183 4.92H95.0943V8.268H96.9183C97.5983 8.268 98.1143 8.124 98.4662 7.836C98.8183 7.54 98.9943 7.124 98.9943 6.588Z" fill="#484848"/>
</svg>
