<svg width="16" height="13" viewBox="0 0 16 13" fill="none" xmlns="http://www.w3.org/2000/svg">
<path fill-rule="evenodd" clip-rule="evenodd" d="M0.00874999 0.875C0.00874999 0.642936 0.100937 0.420376 0.265032 0.256282C0.429126 0.0921874 0.651686 0 0.88375 0H14.875C15.1071 0 15.3296 0.0921874 15.4937 0.256282C15.6578 0.420376 15.75 0.642936 15.75 0.875V10.7835C15.75 11.2476 15.5656 11.6927 15.2374 12.0209C14.9092 12.3491 14.4641 12.5335 14 12.5335H1.75C1.28587 12.5335 0.840752 12.3491 0.512563 12.0209C0.184374 11.6927 0 11.2476 0 10.7835V1.1585C0 1.1165 0.00262499 1.07625 0.00874999 1.036V0.875ZM1.75 2.821V10.7835H14V2.821L9.73088 7.09013C9.23862 7.58224 8.57106 7.85869 7.875 7.85869C7.17894 7.85869 6.51138 7.58224 6.01912 7.09013L1.75 2.81925V2.821ZM3.1255 1.722H12.6245L8.4945 5.852C8.41324 5.93335 8.31673 5.99789 8.21051 6.04193C8.10429 6.08596 7.99043 6.10863 7.87544 6.10863C7.76045 6.10863 7.64659 6.08596 7.54036 6.04193C7.43414 5.99789 7.33764 5.93335 7.25638 5.852L3.1255 1.722Z" fill="#424242"/>
</svg>
